# AST/ASF file generated using VICON BodyLanguage
# -----------------------------------------------
:version 1.10
:name VICON
:units
  mass 1.0
  length 0.45
  angle deg
:documentation
   .ast/.asf automatically generated from VICON data using
   VICON BodyBuilder and BodyLanguage model FoxedUp or BRILLIANT.MOD
:root
   order TX TY TZ RX RY RZ
   axis XYZ
   position 0 0 0  
   orientation 0 0 0 
:bonedata
  begin
     id 1 
     name lhipjoint
     direction 0.635376 -0.686425 0.353719 
     length 2.47244 
     axis 0 0 0  XYZ
  end
  begin
     id 2 
     name lfemur
     direction 0.34202 -0.939693 0  
     length 7.25268  
     axis 0 0 20  XYZ
    dof rx ry rz
    limits (-160.0 20.0)
           (-70.0 70.0)
           (-60.0 70.0)
  end
  begin
     id 3 
     name ltibia
     direction 0.34202 -0.939693 0   
     length 7.6767   
     axis 0 0 20   XYZ
    dof rx
    limits (-10.0 170.0)
  end
  begin
     id 4 
     name lfoot
     direction 0.0803374 -0.220725 0.972022   
     length 2.22945   
     axis -90 7.62852e-016 20   XYZ
    dof rx rz
    limits (-45.0 90.0)
           (-70.0 20.0)
  end
  begin
     id 5 
     name ltoes
     direction 1.53579e-011 -4.21994e-011 1   
     length 1.11848   
     axis -90 7.62852e-016 20   XYZ
    dof rx
    limits (-90.0 20.0)
  end
  begin
     id 6 
     name rhipjoint
     direction -0.664428 -0.664335 0.342336   
     length 2.55466  
     axis 0 0 0  XYZ 
  end
  begin
     id 7 
     name rfemur
     direction -0.34202 -0.939693 0   
     length 6.83172   
     axis 0 0 -20   XYZ
    dof rx ry rz
    limits (-160.0 20.0)
           (-70.0 70.0)
           (-70.0 60.0)
  end
  begin
     id 8 
     name rtibia
     direction -0.34202 -0.939693 0   
     length 7.62692   
     axis 0 0 -20   XYZ
    dof rx
    limits (-10.0 170.0)
 end
 begin
     id 9 
     name rfoot
     direction -0.0949276 -0.260811 0.960711   
     length 2.19684  
     axis -90 -7.62852e-016 -20   XYZ
    dof rx rz
    limits (-45.0 90.0)
           (-20.0 70.0)
  end
  begin
     id 10 
     name rtoes
     direction -1.53543e-011 -4.2183e-011 1   
     length 1.09848   
     axis -90 -7.62852e-016 -20   XYZ
    dof rx
    limits (-90.0 20.0)
  end
  begin
     id 11 
     name lowerback
     direction 0.0118782 0.999815 -0.0151555   
     length 2.15772   
     axis 0 0 0   XYZ
    dof rx ry rz
    limits (-20.0 45.0)
           (-30.0 30.0)
           (-30.0 30.0)
  end
  begin
     id 12 
     name upperback
     direction 0.00130825 0.999065 0.0432113   
     length 2.14863   
     axis 0 0 0   XYZ
    dof rx ry rz
    limits (-20.0 45.0)
           (-30.0 30.0)
           (-30.0 30.0)
  end
  begin
     id 13 
     name thorax
     direction -0.00347005 0.998773 0.0494011   
     length 2.14936   
     axis 0 0 0   XYZ
    dof rx ry rz
    limits (-20.0 45.0)
           (-30.0 30.0)
           (-30.0 30.0)
  end
  begin
     id 14 
     name lowerneck
     direction -0.0262159 0.99424 0.103921   
     length 1.69373   
     axis 0 0 0   XYZ
    dof rx ry rz
    limits (-20.0 45.0)
           (-30.0 30.0)
           (-30.0 30.0)
  end
  begin
     id 15 
     name upperneck
     direction 0.0353511 0.977394 -0.20845   
     length 1.70857   
     axis 0 0 0   XYZ
    dof rx ry rz
    limits (-20.0 45.0)
           (-30.0 30.0)
           (-30.0 30.0)
  end
  begin
     id 16
     name head
     direction 0.0139214 0.996594 -0.0812836  
     length 1.72777  
     axis 0 0 0   XYZ
    dof rx ry rz
    limits (-20.0 45.0)
           (-30.0 30.0)
           (-30.0 30.0)
  end
  begin
     id 17 
     name lclavicle
     direction 0.841247 0.537205 -0.0609508  
     length 3.55371  
     axis 0 0 0   XYZ
    dof ry rz
    limits (-20.0 10.0)
           (0.0 20.0)
  end
  begin
     id 18 
     name lhumerus
     direction 1 -4.48964e-011 1.60116e-018   
     length 4.91377   
     axis -180 -30 -90   XYZ
    dof rx ry rz
    limits (-60.0 90.0)
           (-90.0 90.0)
           (-90.0 90.0)
  end
  begin
     id 19
     name lradius
     direction 1 -4.48989e-011 -8.93847e-027   
     length 3.00291   
     axis -180 -30 -90   XYZ
    dof rx
    limits (-10.0 170.0)
  end
  begin
     id 20
     name lwrist
     direction 1 -4.48932e-011 -7.31504e-027   
     length 1.50145   
     axis 5.74121e-015 90 90   XYZ
    dof ry
    limits (-180.0 0.0)
 end
  begin
     id 21 
     name lhand
     direction 1 -4.48971e-011 -1.46301e-026   
     length 0.450922   
     axis 9.33524e-015 90 90   XYZ
    dof rx rz
    limits (-90.0 90.0)
           (-45.0 45.0)
  end
  begin
     id 22 
     name lfingers
     direction 1 -4.49039e-011 -2.92602e-026   
     length 0.363545   
     axis 1.86705e-014 90 90   XYZ
    dof rx
    limits (0.0 90.0)
  end
  begin
     id 23
     name lthumb
     direction 0.707107 -6.34941e-011 0.707107   
     length 0.52198   
     axis -90 45 2.85299e-015   XYZ
    dof rx rz
    limits (-45.0 45.0)
           (-45.0 45.0)
  end
  begin
     id 24 
     name rclavicle
     direction -0.825079 0.56158 -0.0622297   
     length 3.39909  
     axis 0 0 0   XYZ 
    dof ry rz
    limits (-10.0 20.0)
           (-20.0 0.0)
  end
  begin
     id 25 
     name rhumerus
     direction -1 -4.48965e-011 1.61691e-027  
     length 4.86725   
     axis -180 30 90   XYZ
    dof rx ry rz
    limits (-90.0 60.0)
           (-90.0 90.0)
           (-90.0 90.0)
  end
  begin
     id 26 
     name rradius
     direction -1 -4.48964e-011 -2.25776e-027   
     length 3.17144   
     axis -180 30 90   XYZ
    dof rx
    limits (-10.0 170.0)
  end
  begin
     id 27 
     name rwrist
     direction -1 -4.48961e-011 -7.31504e-027   
     length 1.58572   
     axis 5.74121e-015 -90 -90   XYZ
    dof ry
    limits (-180.0 0.0)
  end
  begin
     id 28
     name rhand
     direction -1 -4.49013e-011 -1.46301e-026   
     length 0.419368   
     axis 9.33524e-015 -90 -90   XYZ
    dof rx rz
    limits (-90.0 90.0)
           (-45.0 45.0)
  end
  begin
     id 29
     name rfingers
     direction -1 -4.489e-011 -2.92602e-026   
     length 0.338105   
     axis 1.86705e-014 -90 -90   XYZ
    dof rx
    limits (0.0 90.0)
  end
  begin
     id 30
     name rthumb
     direction -0.707107 -6.35022e-011 0.707107   
     length 0.485453   
     axis -90 -45 -2.85299e-015   XYZ
    dof rx rz
    limits (-45.0 45.0)
           (-45.0 45.0)
  end
:hierarchy
  begin
    root lhipjoint rhipjoint lowerback
    lhipjoint lfemur
    lfemur ltibia
    ltibia lfoot
    lfoot ltoes
    rhipjoint rfemur
    rfemur rtibia
    rtibia rfoot
    rfoot rtoes
    lowerback upperback
    upperback thorax
    thorax lowerneck lclavicle rclavicle
    lowerneck upperneck
    upperneck head
    lclavicle lhumerus
    lhumerus lradius
    lradius lwrist
    lwrist lhand lthumb
    lhand lfingers
    rclavicle rhumerus
    rhumerus rradius
    rradius rwrist
    rwrist rhand rthumb
    rhand rfingers
  end

#!OML:ASF H:\Swim 2\Project 1\Capture day 1\Session 1\male.ASF
:FULLY-SPECIFIED
:DEGREES
334
root -0.487395 14.933 7.82165 110.736 6.49802 2.69143
lowerback -24.8456 1.94459 -2.07137
upperback -1.50757 3.15058 0.713656
thorax 12.0628 1.36215 3.09105
lowerneck -13.4918 -2.99117 4.66811
upperneck 41.6651 -5.53881 -0.164479
head 17.4756 -1.37826 -1.86499
rclavicle -3.02153e-014 2.92213e-014
rhumerus 82.7918 -19.0059 -28.5573
rradius 31.9798
rwrist -31.4695
rhand -16.8953 -3.67977
rfingers 7.12502
rthumb 9.3364 -33.453
lclavicle -3.02153e-014 2.92213e-014
lhumerus 99.8231 7.54549 29.9589
lradius 29.2377
lwrist 12.11
lhand -33.1188 -9.79108
lfingers 7.12502
lthumb -6.32893 20.0944
rfemur -42.2198 -8.6549 21.105
rtibia 64.0958
rfoot 21.1407 1.17955
rtoes 11.7937
lfemur -40.0946 -0.516806 -21.9386
ltibia 79.6751
lfoot 3.57915 -10.8848
ltoes -4.64102
335
root -0.49382 14.9474 7.83069 110.726 6.37659 2.78286
lowerback -24.7897 1.89144 -2.22063
upperback -1.55293 3.12108 0.711985
thorax 11.974 1.34364 3.15994
lowerneck -13.7207 -3.02577 4.72729
upperneck 41.5736 -5.65284 -0.101634
head 17.481 -1.40775 -1.87161
rclavicle -2.22639e-014 -3.97569e-016
rhumerus 82.9039 -18.7787 -28.6268
rradius 31.828
rwrist -30.8663
rhand -18.2026 -3.37913
rfingers 7.12502
rthumb 8.07484 -33.2049
lclavicle -2.22639e-014 -3.97569e-016
lhumerus 99.9734 7.25424 30.2465
lradius 29.1544
lwrist 13.079
lhand -33.5866 -9.83397
lfingers 7.12502
lthumb -6.78053 20.0375
rfemur -42.2857 -8.81154 21.0095
rtibia 64.423
rfoot 21.4958 1.38633
rtoes 11.5344
lfemur -40.1744 -0.646213 -21.9279
ltibia 80.8126
lfoot 3.84764 -11.2544
ltoes -4.01343
336
root -0.500691 14.959 7.83777 110.775 6.2597 2.86324
lowerback -24.771 1.84817 -2.36567
upperback -1.61509 3.10409 0.713185
thorax 11.8855 1.33164 3.23532
lowerneck -13.9695 -3.06185 4.7743
upperneck 41.4615 -5.75664 -0.0616049
head 17.479 -1.4382 -1.88471
rclavicle 3.18055e-015 4.17448e-015
rhumerus 82.9908 -18.6198 -28.5444
rradius 31.6611
rwrist -30.2439
rhand -19.6504 -2.82148
rfingers 7.12502
rthumb 6.67735 -32.6962
lclavicle 3.18055e-015 4.17448e-015
lhumerus 100.133 7.00866 30.5463
lradius 29.026
lwrist 13.9256
lhand -34.1183 -9.96412
lfingers 7.12502
lthumb -7.29373 19.8902
rfemur -42.3823 -8.894 20.9117
rtibia 64.609
rfoot 21.8444 1.56201
rtoes 11.2641
lfemur -40.2793 -0.818921 -21.902
ltibia 81.7718
lfoot 4.05953 -11.5561
ltoes -3.39325
337
root -0.507928 14.9676 7.84324 110.883 6.15274 2.92865
lowerback -24.7872 1.81864 -2.50454
upperback -1.69408 3.10409 0.719815
thorax 11.7957 1.32841 3.32029
lowerneck -14.2528 -3.10753 4.81313
upperneck 41.3454 -5.85655 -0.0644842
head 17.4811 -1.47294 -1.91591
rclavicle -1.59028e-015 -1.05356e-014
rhumerus 83.0733 -18.5362 -28.3511
rradius 31.4651
rwrist -29.5441
rhand -21.1559 -2.00342
rfingers 7.12502
rthumb 5.22384 -31.919
lclavicle -1.59028e-015 -1.05356e-014
lhumerus 100.319 6.79217 30.9197
lradius 28.8473
lwrist 14.5113
lhand -34.694 -10.1532
lfingers 7.12502
lthumb -7.8494 19.681
rfemur -42.5099 -8.89997 20.8162
rtibia 64.6489
rfoot 22.196 1.69556
rtoes 10.997
lfemur -40.412 -1.01536 -21.8582
ltibia 82.5533
lfoot 4.21021 -11.7878
ltoes -2.81801
338
root -0.515176 14.9732 7.84764 111.039 6.05966 2.99114
lowerback -24.8295 1.80157 -2.63667
upperback -1.78693 3.11838 0.737801
thorax 11.7027 1.33259 3.41991
lowerneck -14.5728 -3.16823 4.84695
upperneck 41.2421 -5.95677 -0.123642
head 17.4962 -1.51394 -1.97298
rclavicle -1.59028e-015 -1.03368e-014
rhumerus 83.1696 -18.5317 -28.0874
rradius 31.2373
rwrist -28.7383
rhand -22.6003 -0.997662
rfingers 7.12502
rthumb 3.82905 -30.943
lclavicle -1.59028e-015 -1.03368e-014
lhumerus 100.589 6.54546 31.5721
lradius 28.5957
lwrist 14.801
lhand -35.0121 -10.4685
lfingers 7.12502
lthumb -8.15649 19.3541
rfemur -42.6515 -8.84487 20.7291
rtibia 64.5364
rfoot 22.5343 1.77988
rtoes 10.7289
lfemur -40.5623 -1.22785 -21.792
ltibia 83.1564
lfoot 4.29904 -11.936
ltoes -2.3431
339
root -0.522833 14.9758 7.85139 111.242 5.98305 3.03349
lowerback -24.8986 1.80052 -2.7664
upperback -1.89167 3.15326 0.766458
thorax 11.6086 1.34695 3.53811
lowerneck -14.9159 -3.23513 4.87284
upperneck 41.1376 -6.04741 -0.225739
head 17.5141 -1.55717 -2.04702
rclavicle 1.27222e-014 -3.12092e-014
rhumerus 83.3234 -18.5961 -27.8567
rradius 30.9589
rwrist -27.7138
rhand -23.912 0.11506
rfingers 7.12502
rthumb 2.56234 -29.8493
lclavicle 1.27222e-014 -3.12092e-014
lhumerus 100.988 6.21563 32.6774
lradius 28.2401
lwrist 14.7729
lhand -34.779 -11.0692
lfingers 7.12502
lthumb -7.93145 18.762
rfemur -42.807 -8.714 20.6487
rtibia 64.267
rfoot 22.8594 1.79119
rtoes 10.5152
lfemur -40.7295 -1.42166 -21.7063
ltibia 83.5805
lfoot 4.32518 -12.0024
ltoes -2.06804
340
root -0.530702 14.9753 7.85523 111.475 5.93229 3.06833
lowerback -24.9781 1.81558 -2.88039
upperback -2.00222 3.20439 0.807576
thorax 11.512 1.37004 3.66714
lowerneck -15.2531 -3.29417 4.87321
upperneck 41.0053 -6.11954 -0.319907
head 17.5165 -1.59726 -2.10889
rclavicle -1.74931e-014 3.37934e-015
rhumerus 83.5633 -18.7226 -27.723
rradius 30.6294
rwrist -26.3811
rhand -25.0606 1.117
rfingers 7.12502
rthumb 1.45307 -28.8578
lclavicle -1.74931e-014 3.37934e-015
lhumerus 101.505 5.78965 34.2227
lradius 27.7703
lwrist 14.3707
lhand -34.0765 -12.0005
lfingers 7.12502
lthumb -7.25345 17.8552
rfemur -42.9475 -8.52084 20.5853
rtibia 63.834
rfoot 23.1517 1.7612
rtoes 10.2763
lfemur -40.8908 -1.59621 -21.5888
ltibia 83.8201
lfoot 4.29647 -11.9881
ltoes -1.99709
